<svg xmlns="http://www.w3.org/2000/svg" width="25" height="28" fill="none"><path fill="#fff" fill-rule="evenodd" d="M22.035 8.872c-1.098 0-1.988.89-1.988 1.988V17.9a1.988 1.988 0 1 0 3.976 0V10.86c0-1.098-.89-1.988-1.988-1.988M1.988 8.872C.89 8.872 0 9.762 0 10.86V17.9a1.988 1.988 0 0 0 3.976 0V10.86c0-1.098-.89-1.988-1.988-1.988M4.474 20.387c0 1.006.816 1.822 1.822 1.822h.911v3.728a1.988 1.988 0 0 0 3.977 0v-3.728h1.657v3.728a1.988 1.988 0 0 0 3.976 0v-3.728h.911a1.823 1.823 0 0 0 1.823-1.822V9.46H4.474v10.927ZM15.491 6.105a.63.63 0 1 1 .002-1.26.63.63 0 0 1-.002 1.26m-6.958 0a.63.63 0 1 1 .001-1.26.63.63 0 0 1-.001 1.26m7.437-3.156L17.16.799a.539.539 0 0 0-.942-.521L14.998 2.48a8.054 8.054 0 0 0-2.986-.568c-1.06 0-2.07.203-2.986.568L7.805.278A.538.538 0 1 0 6.863.8l1.191 2.149c-2.146 1.224-3.577 3.415-3.58 5.914H19.55c-.003-2.5-1.434-4.69-3.58-5.914" clip-rule="evenodd"/></svg>
