<?xml version="1.0" encoding="UTF-8"?>
<svg width="20px" height="47px" viewBox="0 0 20 47" version="1.1" xmlns="http://www.w3.org/2000/svg" xmlns:xlink="http://www.w3.org/1999/xlink">
    <title>Group</title>
    <g id="Page-1" stroke="none" stroke-width="1" fill="none" fill-rule="evenodd">
        <g id="HS-Pricing" transform="translate(-11.000000, -36.000000)" fill="#1F95FF" fill-rule="nonzero">
            <g id="Group" transform="translate(11.536993, 36.083125)">
                <path d="M17.8089579,0.299772323 C18.5578495,-0.0544208765 18.9310653,-0.142981977 19.2503779,0.299772323 C19.4130071,0.525271623 19.7521494,1.31043402 17.8089579,2.52936162 C15.5244794,3.96237222 9.31539265,6.39650032 4.58766995,18.2985967 C1.52711135,26.0035884 3.83903325,35.5542121 10.8566336,42.3384336 C11.4522401,42.9142325 11.4682974,43.8638442 10.8924985,44.4594507 C10.3166996,45.0550573 9.36708775,45.0711145 8.77148125,44.4953156 C0.89271305,36.8785653 -1.08507255,27.5543214 2.11156155,18.2985967 C4.80221775,10.5079101 11.0825665,3.48106332 17.8089579,0.299772323 Z" id="Path-2"></path>
                <path d="M12.2215241,37.9421297 C12.4645342,37.1501463 13.3812086,36.0883476 14.0819913,36.0883476 C14.5491797,36.0883476 14.5491797,36.863813 14.0819913,38.4147438 L12.0714284,45.1268799 C11.8392883,45.8834373 11.064613,46.3213502 10.3086036,46.1505055 L10.1672076,46.1112674 L1.01089765,43.5429798 C0.22422545,43.2832911 -0.13371305,42.455779 0.0452561503,41.8315614 C0.22422545,41.2073437 0.93769095,41.2073437 1.68278865,41.3767656 L1.82211995,41.4155292 L10.0462663,43.5429798 L12.2215241,37.9421297 Z" id="Path-3"></path>
            </g>
        </g>
    </g>
</svg>