<svg xmlns="http://www.w3.org/2000/svg" width="24" height="28" fill="none"><path fill="#fff" fill-rule="evenodd" d="M16.44 4.478C17.479 3.268 18 1.96 18 .56a5 5 0 0 0-.03-.56c-.724.037-1.492.252-2.305.641-.814.395-1.485.89-2.013 1.486-1.058 1.176-1.654 2.615-1.654 3.96 0 .185.013.362.034.53 1.642.131 3.157-.7 4.409-2.139Zm5.525 20.05a15.149 15.149 0 0 0 1.532-2.707c.178-.415.345-.847.503-1.299a6.502 6.502 0 0 1-1.973-1.271c-1.297-1.181-1.956-2.668-1.975-4.454-.021-2.294 1.039-4.082 3.183-5.359-1.198-1.673-2.999-2.601-5.396-2.791-.885-.074-1.964.113-3.244.566-1.353.488-2.151.732-2.387.732-.315 0-1.033-.209-2.152-.622-1.122-.411-2.025-.62-2.714-.62a7.073 7.073 0 0 0-3.508.973 7.205 7.205 0 0 0-2.595 2.58C.413 11.61 0 13.23 0 15.105c0 1.638.306 3.33.916 5.078.57 1.617 1.298 3.037 2.183 4.26.825 1.146 1.514 1.955 2.064 2.427.862.788 1.727 1.163 2.593 1.127.57-.02 1.316-.211 2.241-.58.925-.366 1.788-.547 2.594-.547.768 0 1.608.181 2.522.548.911.368 1.694.55 2.343.55.904-.021 1.748-.386 2.536-1.098.508-.434 1.168-1.215 1.973-2.344Z" clip-rule="evenodd"/></svg>
