<svg xmlns="http://www.w3.org/2000/svg" width="95" height="95">
  <g fill="#294DFF" fill-rule="evenodd">
    <path d="M0 3h3V0H0zM18.286 3h3V0h-3zM36.571 3h3V0h-3zM54.857 3h3V0h-3zM73.143 3h3V0h-3zM91.429 3h3V0h-3zM0 21.286h3v-3H0zM18.286 21.286h3v-3h-3zM36.571 21.286h3v-3h-3zM54.857 21.286h3v-3h-3zM73.143 21.286h3v-3h-3zM91.429 21.286h3v-3h-3zM0 39.571h3v-3H0zM18.286 39.571h3v-3h-3zM36.571 39.571h3v-3h-3zM54.857 39.571h3v-3h-3zM73.143 39.571h3v-3h-3zM91.429 39.571h3v-3h-3zM91 58h3v-3h-3zM0 58h3v-3H0zM18.286 58h3v-3h-3zM36.571 58h3v-3h-3zM54.857 58h3v-3h-3zM73 58h3v-3h-3zM18 76h3v-3h-3zM36.571 76.286h3v-3h-3zM54.857 76.286h3v-3h-3zM73.143 76.286h3v-3h-3zM91.429 76.286h3v-3h-3zM0 94.571h3v-3H0zM0 76h3v-3H0zM18.286 94.571h3v-3h-3zM36.571 94.571h3v-3h-3zM54.857 94.571h3v-3h-3zM73.143 94.571h3v-3h-3zM91.429 94.571h3v-3h-3z"/>
  </g>
</svg>
