<svg xmlns="http://www.w3.org/2000/svg" width="150" height="110">
  <g fill="#0CDFA3" fill-rule="evenodd">
    <path d="M0 2.2h2.206V0H0zM13.445 2.2h2.206V0h-2.206zM26.891 2.2h2.206V0h-2.206zM40.336 2.2h2.206V0h-2.206zM53.782 2.2h2.205V0h-2.205zM67.227 2.2h2.206V0h-2.206zM0 15.61h2.206v-2.2H0zM13.445 15.61h2.206v-2.2h-2.206zM26.891 15.61h2.206v-2.2h-2.206zM40.336 15.61h2.206v-2.2h-2.206zM53.782 15.61h2.205v-2.2h-2.205zM67.227 15.61h2.206v-2.2h-2.206zM0 29.019h2.206v-2.2H0zM13.445 29.019h2.206v-2.2h-2.206zM26.891 29.019h2.206v-2.2h-2.206zM40.336 29.019h2.206v-2.2h-2.206zM53.782 29.019h2.205v-2.2h-2.205zM67.227 29.019h2.206v-2.2h-2.206zM66.912 42.533h2.206v-2.2h-2.206zM0 42.533h2.206v-2.2H0zM13.445 42.533h2.206v-2.2h-2.206zM26.891 42.533h2.206v-2.2h-2.206zM40.336 42.533h2.206v-2.2h-2.206zM53.676 42.533h2.206v-2.2h-2.206zM13.235 55.733h2.206v-2.2h-2.206zM26.891 55.943h2.206v-2.2h-2.206zM40.336 55.943h2.206v-2.2h-2.206zM53.782 55.943h2.205v-2.2h-2.205zM67.227 55.943h2.206v-2.2h-2.206zM0 69.352h2.206v-2.2H0zM0 55.733h2.206v-2.2H0zM13.445 69.352h2.206v-2.2h-2.206zM26.891 69.352h2.206v-2.2h-2.206zM40.336 69.352h2.206v-2.2h-2.206zM53.782 69.352h2.205v-2.2h-2.205zM67.227 69.352h2.206v-2.2h-2.206zM80.147 2.2h2.206V0h-2.206zM93.592 2.2h2.206V0h-2.206zM107.038 2.2h2.206V0h-2.206zM120.483 2.2h2.206V0h-2.206zM133.929 2.2h2.205V0h-2.205zM147.374 2.2h2.206V0h-2.206zM80.147 15.61h2.206v-2.2h-2.206zM93.592 15.61h2.206v-2.2h-2.206zM107.038 15.61h2.206v-2.2h-2.206zM120.483 15.61h2.206v-2.2h-2.206zM133.929 15.61h2.205v-2.2h-2.205zM147.374 15.61h2.206v-2.2h-2.206zM80.147 29.019h2.206v-2.2h-2.206zM93.592 29.019h2.206v-2.2h-2.206zM107.038 29.019h2.206v-2.2h-2.206zM120.483 29.019h2.206v-2.2h-2.206zM133.929 29.019h2.205v-2.2h-2.205zM147.374 29.019h2.206v-2.2h-2.206zM147.059 42.533h2.206v-2.2h-2.206zM80.147 42.533h2.206v-2.2h-2.206zM93.592 42.533h2.206v-2.2h-2.206zM107.038 42.533h2.206v-2.2h-2.206zM120.483 42.533h2.206v-2.2h-2.206zM133.824 42.533h2.205v-2.2h-2.205zM93.382 55.733h2.206v-2.2h-2.206zM107.038 55.943h2.206v-2.2h-2.206zM120.483 55.943h2.206v-2.2h-2.206zM133.929 55.943h2.205v-2.2h-2.205zM147.374 55.943h2.206v-2.2h-2.206zM80.147 69.352h2.206v-2.2h-2.206zM80.147 55.733h2.206v-2.2h-2.206zM93.592 69.352h2.206v-2.2h-2.206zM107.038 69.352h2.206v-2.2h-2.206zM120.483 69.352h2.206v-2.2h-2.206zM133.929 69.352h2.205v-2.2h-2.205zM147.374 69.352h2.206v-2.2h-2.206zM0 82.867h2.206v-2.2H0zM13.445 82.867h2.206v-2.2h-2.206zM26.891 82.867h2.206v-2.2h-2.206zM40.336 82.867h2.206v-2.2h-2.206zM53.782 82.867h2.205v-2.2h-2.205zM67.227 82.867h2.206v-2.2h-2.206zM0 96.276h2.206v-2.2H0zM13.445 96.276h2.206v-2.2h-2.206zM26.891 96.276h2.206v-2.2h-2.206zM40.336 96.276h2.206v-2.2h-2.206zM53.782 96.276h2.205v-2.2h-2.205zM67.227 96.276h2.206v-2.2h-2.206zM0 109.686h2.206v-2.2H0zM13.445 109.686h2.206v-2.2h-2.206zM26.891 109.686h2.206v-2.2h-2.206zM40.336 109.686h2.206v-2.2h-2.206zM53.782 109.686h2.205v-2.2h-2.205zM67.227 109.686h2.206v-2.2h-2.206zM80.147 82.867h2.206v-2.2h-2.206zM93.592 82.867h2.206v-2.2h-2.206zM107.038 82.867h2.206v-2.2h-2.206zM120.483 82.867h2.206v-2.2h-2.206zM133.929 82.867h2.205v-2.2h-2.205zM147.374 82.867h2.206v-2.2h-2.206zM80.147 96.276h2.206v-2.2h-2.206zM93.592 96.276h2.206v-2.2h-2.206zM107.038 96.276h2.206v-2.2h-2.206zM120.483 96.276h2.206v-2.2h-2.206zM133.929 96.276h2.205v-2.2h-2.205zM147.374 96.276h2.206v-2.2h-2.206zM80.147 109.686h2.206v-2.2h-2.206zM93.592 109.686h2.206v-2.2h-2.206zM107.038 109.686h2.206v-2.2h-2.206zM120.483 109.686h2.206v-2.2h-2.206zM133.929 109.686h2.205v-2.2h-2.205zM147.374 109.686h2.206v-2.2h-2.206z"/>
  </g>
</svg>
