<?xml version="1.0" encoding="UTF-8"?>
<svg width="191px" height="224px" viewBox="0 0 191 224" version="1.1" xmlns="http://www.w3.org/2000/svg" xmlns:xlink="http://www.w3.org/1999/xlink">
    <title>Ellipse 1</title>
    <g id="Page-1" stroke="none" stroke-width="1" fill="none" fill-rule="evenodd" opacity="0.5">
        <g id="About-v1" transform="translate(0.000000, -481.000000)" stroke="#294DFF" stroke-width="0.5">
            <g id="Group-15" transform="translate(-288.000000, 0.422796)">
                <g id="Group-19" transform="translate(-478.996260, -1607.422796)">
                    <path d="M1686.85659,1804.47857 C1576.52525,1604.03642 1565.22264,1371.95528 1636.48673,1170.48821 C1659.69489,1104.91024 1634.86565,1031.23791 1577.271,996.491916 L544.058127,372.932214 C476.707908,332.303084 389.714315,359.05964 355.885824,432.800563 C223.734686,720.476917 147.401088,1041.86629 141.490622,1381.61524 L141.556735,1469.49505 C142.625114,1527.83007 145.777362,1585.64053 150.952656,1642.84573 C155.316087,1691.20202 189.816282,1730.35835 234.741111,1740.8455 C514.722648,1806.22979 768.983743,1989.93044 924.472625,2272.26436 C1079.13907,2553.29899 1104.93356,2875.55186 1021.76392,3163.71243 C1008.00456,3211.2496 1024.98228,3262.39009 1063.65285,3290.80506 C1096.52932,3315.01548 1130.06163,3338.27363 1164.22597,3360.55126 L1289.85048,3436.4106 C1551.4104,3582.40754 1844.6647,3673.60014 2156.06559,3694.68339 C2233.36707,3699.9774 2298.46418,3633.91522 2298.46418,3552.07994 C2298.49062,3254.82433 2298.49062,2587.50428 2298.49062,2304.71036 C2298.49062,2234.60908 2250.2443,2175.58002 2184.63152,2164.39077 C1983.42974,2129.91916 1797.17735,2004.71494 1686.85659,1804.47857" id="Ellipse-1" transform="translate(1219.990622, 2024.469715) rotate(-5.000000) translate(-1219.990622, -2024.469715) "></path>
                </g>
            </g>
        </g>
    </g>
</svg>