<svg xmlns="http://www.w3.org/2000/svg" width="1408" height="832" fill="none">
  <path stroke="#08BA98" stroke-width=".5" d="m2357.44-1157.32-1163.03-60.8c-65.94-3.43-123.13 42.32-137.66 106.64-43.76 193.815-170.235 367.761-361.709 465.323-191.658 97.654-406.935 97.649-589.564 18.959-60.554-26.109-131.147-6.803-167.203 48.556l-638.124 980.76c-42.241 65.028-19.695 151.215 48.043 188.623A2129.147 2129.147 0 0 0-414.418 703.29c215.289 86.176 445.137 131.149 677.14 143.236l155.733 8.163 9.512.115a2935.82 2935.82 0 0 0 26.391-.875c46.268-1.822 85.931-33.583 98.27-78.12 75.647-272.669 261.263-514.384 534.032-653.368 272.03-138.603 575.78-147.017 840.4-48.759 43.05 16.014 91.55 2.453 119.88-33.79l.51-.663 99.41-152.773c159.65-245.385 274.4-518.661 322.32-806.82 5.01-30.123 9.33-60.35 13.05-90.676 9.18-75.41-48.74-142.34-124.79-146.28" opacity=".3"/>
</svg>
