<svg xmlns="http://www.w3.org/2000/svg" width="639" height="720">
  <path fill="none" fill-rule="evenodd" stroke="#FFF" stroke-width=".5" d="M1135.357-945.532 465.43-375.471c-37.974 32.331-46.2 87.212-21.555 130.192 74.26 129.488 92.994 290.954 37.265 444.07-55.784 153.264-174.08 264.98-314.35 316.401-46.517 17.04-75.515 64.311-67.248 113.522l146.817 871.496c9.773 57.747 65.878 93.53 122.074 78.987 63.735-16.496 126.363-36.95 187.533-61.186 162.012-64.246 311.125-158.749 444.742-272.488l89.716-76.32 5.285-4.873c4.694-4.7 9.374-9.407 14.058-14.178 24.5-25.015 30.185-63.096 14.374-94.037-96.736-189.481-117.344-418.978-37.953-637.104 79.174-217.529 241.822-379.8 437.068-462.989 31.778-13.519 51.548-46.156 48.737-80.83l-.058-.63-22.864-135.758c-36.741-218.04-112.299-428.147-232.125-611.777-12.528-19.194-25.485-38.09-38.824-56.724-33.207-46.316-98.98-53.135-142.765-15.835" opacity=".82"/>
</svg>
