<svg xmlns="http://www.w3.org/2000/svg" xmlns:xlink="http://www.w3.org/1999/xlink" width="56" height="71" viewBox="0 0 56 71"><defs><path id="a" d="M0 0h42v71H0z"/><path id="d" d="M-16 16h42v36h-42z"/><linearGradient id="e" x1="62.853%" x2="-258.775%" y1="41.775%" y2="-91.49%"><stop offset="0%" stop-color="#FFF"/><stop offset="67.284%" stop-color="#ADCDFB"/><stop offset="100%" stop-color="#0065F2"/></linearGradient><filter id="c" width="233.3%" height="255.6%" x="-66.7%" y="-63.9%" filterUnits="objectBoundingBox"><feOffset dy="5" in="SourceAlpha" result="shadowOffsetOuter1"/><feGaussianBlur in="shadowOffsetOuter1" result="shadowBlurOuter1" stdDeviation="8.5"/><feColorMatrix in="shadowBlurOuter1" values="0 0 0 0 0 0 0 0 0 0 0 0 0 0 0 0 0 0 0.112833943 0"/></filter></defs><g fill="none" fill-rule="evenodd"><g transform="translate(14)"><mask id="b" fill="#fff"><use xlink:href="#a"/></mask><g fill="#000" mask="url(#b)"><use xlink:href="#d" filter="url(#c)"/></g></g><path fill="#294DFF" d="m0 19 14-8v8z"/><path fill="url(#e)" d="M0 7.815h42.371v35.5H0z" transform="translate(0 11)"/><path fill="#294DFF" d="m12.687 43.5 4.298 2.425c.244.137.55.076.729-.136a2.975 2.975 0 0 1 2.273-1.042c.917 0 1.734.407 2.276 1.044.179.211.484.273.728.136l4.32-2.432a.545.545 0 0 0 .183-.791 8.893 8.893 0 0 0-.684-.866 8.984 8.984 0 0 0-2.293-1.812l-.576-.324-.036-.019a12.763 12.763 0 0 0-.102-.046.461.461 0 0 0-.524.104 4.5 4.5 0 0 1-3.292 1.414 4.5 4.5 0 0 1-3.285-1.408.457.457 0 0 0-.52-.1h-.003l-.673.38c-1.081.608-2.046 1.405-2.785 2.383a8.914 8.914 0 0 0-.225.312c-.18.263-.09.62.19.779"/><path fill="#1F95FF" d="M12.94 28.614a.595.595 0 0 0-.242.708c.291.82.245 1.763-.205 2.579a2.873 2.873 0 0 1-2.029 1.464.57.57 0 0 0-.464.571v5.074c0 .333.265.602.58.58a8.404 8.404 0 0 0 3.531-1.05l.512-.31c.14-.09.276-.184.41-.283a.478.478 0 0 0 .171-.517 4.766 4.766 0 0 1 .397-3.626c.633-1.149 1.67-1.896 2.811-2.162a.449.449 0 0 0 .342-.399c.02-.232.034-.467.038-.705v-.358a9.613 9.613 0 0 0-.874-3.86.536.536 0 0 0-.767-.243l-4.211 2.537Z"/><path fill="#5FBBFF" d="M27.507 31.9a3.16 3.16 0 0 1-.205-2.578.595.595 0 0 0-.242-.708l-4.211-2.537a.536.536 0 0 0-.767.244 9.616 9.616 0 0 0-.874 3.86v.357c.004.237.017.473.038.705a.45.45 0 0 0 .342.399c1.141.266 2.178 1.013 2.811 2.162a4.769 4.769 0 0 1 .397 3.626.477.477 0 0 0 .17.517c.135.099.271.193.41.284l.513.309a8.401 8.401 0 0 0 3.53 1.05c.316.022.58-.247.58-.58L30 33.936a.57.57 0 0 0-.464-.571c-.82-.14-1.58-.65-2.03-1.464"/></g></svg>
