<svg xmlns="http://www.w3.org/2000/svg" width="761" height="783">
  <filter id="a">
    <feColorMatrix in="SourceGraphic" values="0 0 0 0 1.000000 0 0 0 0 1.000000 0 0 0 0 1.000000 0 0 0 1.000000 0"/>
  </filter>
  <g fill="none" fill-rule="evenodd">
    <circle cx="380.5" cy="380" r="380" fill="#5ce689"/>
    <g filter="url(#a)">
      <g fill="#294dff">
        <path d="M197 685.98h1.985V684H197zM209.1 685.98h1.986V684h-1.985zM221.202 685.98h1.985V684h-1.985zM233.303 685.98h1.985V684h-1.985zM245.403 685.98h1.986V684h-1.986zM257.504 685.98h1.985V684h-1.985zM197 698.049h1.985v-1.98H197zM209.1 698.049h1.986v-1.98h-1.985zM221.202 698.049h1.985v-1.98h-1.985zM233.303 698.049h1.985v-1.98h-1.985zM245.403 698.049h1.986v-1.98h-1.986zM257.504 698.049h1.985v-1.98h-1.985zM197 710.117h1.985v-1.98H197zM209.1 710.117h1.986v-1.98h-1.985zM221.202 710.117h1.985v-1.98h-1.985zM233.303 710.117h1.985v-1.98h-1.985zM245.403 710.117h1.986v-1.98h-1.986zM257.504 710.117h1.985v-1.98h-1.985zM257.22 722.28h1.986v-1.98h-1.985zM197 722.28h1.985v-1.98H197zM209.1 722.28h1.986v-1.98h-1.985zM221.202 722.28h1.985v-1.98h-1.985zM233.303 722.28h1.985v-1.98h-1.985zM245.309 722.28h1.985v-1.98h-1.985zM208.912 734.16h1.985v-1.98h-1.985zM221.202 734.349h1.985v-1.98h-1.985zM233.303 734.349h1.985v-1.98h-1.985zM245.403 734.349h1.986v-1.98h-1.986zM257.504 734.349h1.985v-1.98h-1.985zM197 746.417h1.985v-1.98H197zM197 734.16h1.985v-1.98H197zM209.1 746.417h1.986v-1.98h-1.985zM221.202 746.417h1.985v-1.98h-1.985zM233.303 746.417h1.985v-1.98h-1.985zM245.403 746.417h1.986v-1.98h-1.986zM257.504 746.417h1.985v-1.98h-1.985zM269.132 685.98h1.986V684h-1.986zM281.233 685.98h1.985V684h-1.985zM293.334 685.98h1.985V684h-1.985zM305.435 685.98h1.985V684h-1.985zM317.536 685.98h1.985V684h-1.985zM329.637 685.98h1.985V684h-1.985zM269.132 698.049h1.986v-1.98h-1.986zM281.233 698.049h1.985v-1.98h-1.985zM293.334 698.049h1.985v-1.98h-1.985zM305.435 698.049h1.985v-1.98h-1.985zM317.536 698.049h1.985v-1.98h-1.985zM329.637 698.049h1.985v-1.98h-1.985zM269.132 710.117h1.986v-1.98h-1.986zM281.233 710.117h1.985v-1.98h-1.985zM293.334 710.117h1.985v-1.98h-1.985zM305.435 710.117h1.985v-1.98h-1.985zM317.536 710.117h1.985v-1.98h-1.985zM329.637 710.117h1.985v-1.98h-1.985zM329.353 722.28h1.985v-1.98h-1.985zM269.132 722.28h1.986v-1.98h-1.986zM281.233 722.28h1.985v-1.98h-1.985zM293.334 722.28h1.985v-1.98h-1.985zM305.435 722.28h1.985v-1.98h-1.985zM317.441 722.28h1.985v-1.98h-1.985zM281.044 734.16h1.985v-1.98h-1.985zM293.334 734.349h1.985v-1.98h-1.985zM305.435 734.349h1.985v-1.98h-1.985zM317.536 734.349h1.985v-1.98h-1.985zM329.637 734.349h1.985v-1.98h-1.985zM269.132 746.417h1.986v-1.98h-1.986zM269.132 734.16h1.986v-1.98h-1.986zM281.233 746.417h1.985v-1.98h-1.985zM293.334 746.417h1.985v-1.98h-1.985zM305.435 746.417h1.985v-1.98h-1.985zM317.536 746.417h1.985v-1.98h-1.985zM329.637 746.417h1.985v-1.98h-1.985zM197 758.58h1.985v-1.98H197zM209.1 758.58h1.986v-1.98h-1.985zM221.202 758.58h1.985v-1.98h-1.985zM233.303 758.58h1.985v-1.98h-1.985zM245.403 758.58h1.986v-1.98h-1.986zM257.504 758.58h1.985v-1.98h-1.985zM197 770.649h1.985v-1.98H197zM209.1 770.649h1.986v-1.98h-1.985zM221.202 770.649h1.985v-1.98h-1.985zM233.303 770.649h1.985v-1.98h-1.985zM245.403 770.649h1.986v-1.98h-1.986zM257.504 770.649h1.985v-1.98h-1.985zM197 782.717h1.985v-1.98H197zM209.1 782.717h1.986v-1.98h-1.985zM221.202 782.717h1.985v-1.98h-1.985zM233.303 782.717h1.985v-1.98h-1.985zM245.403 782.717h1.986v-1.98h-1.986zM257.504 782.717h1.985v-1.98h-1.985zM269.132 758.58h1.986v-1.98h-1.986zM281.233 758.58h1.985v-1.98h-1.985zM293.334 758.58h1.985v-1.98h-1.985zM305.435 758.58h1.985v-1.98h-1.985zM317.536 758.58h1.985v-1.98h-1.985zM329.637 758.58h1.985v-1.98h-1.985zM269.132 770.649h1.986v-1.98h-1.986zM281.233 770.649h1.985v-1.98h-1.985zM293.334 770.649h1.985v-1.98h-1.985zM305.435 770.649h1.985v-1.98h-1.985zM317.536 770.649h1.985v-1.98h-1.985zM329.637 770.649h1.985v-1.98h-1.985zM269.132 782.717h1.986v-1.98h-1.986zM281.233 782.717h1.985v-1.98h-1.985zM293.334 782.717h1.985v-1.98h-1.985zM305.435 782.717h1.985v-1.98h-1.985zM317.536 782.717h1.985v-1.98h-1.985zM329.637 782.717h1.985v-1.98h-1.985z"/>
      </g>
    </g>
  </g>
</svg>
