<svg xmlns="http://www.w3.org/2000/svg" width="347" height="438" viewBox="0 0 347 438"><g fill="none" fill-rule="evenodd" transform="translate(-1190.73 -14.482)"><circle cx="1096.73" cy="305" r="305" fill="#08BA98" fill-rule="nonzero"/><path stroke="#FFF" stroke-width=".5" d="m150.26 1046.49 508.315 114.7c28.822 6.496 57.678-9.187 69.183-36.234 34.657-81.49 104.233-148.023 196.439-176.209 92.294-28.213 187.273-11.904 261.617 36.362 24.648 16.01 57.323 12.91 77.615-8.582l359.22-380.81c23.787-25.254 20.666-64.674-6.257-86.174a946.06 946.06 0 0 0-95.822-67.229c-88.16-54.015-186.007-91.104-287.409-113.966l-68.063-15.368-4.187-.771c-3.895-.552-7.788-1.095-11.713-1.616-20.558-2.708-40.573 8.186-49.544 26.74-54.972 113.58-156.01 205.286-287.364 245.438-130.995 40.043-265.68 20.716-374.646-42.322-17.725-10.268-40.195-8.007-55.57 5.704l-.275.252-55.96 59.319c-89.87 95.279-162.142 206.163-206.11 328.621a949.472 949.472 0 0 0-12.937 38.687c-10.024 32.304 10.226 65.977 43.468 73.459"/></g></svg>
