<svg version="1.1" id="Layer_1" xmlns="http://www.w3.org/2000/svg" x="0" y="0" viewBox="0 0 807.6 662.9" xml:space="preserve"><style>.st3{fill:#c69573}.st4{fill:#a2cbff}.st5{fill:#595959}.st12{fill:#deb69d}.st14{fill:#5c2000}.st15{fill:none;stroke:gray;stroke-miterlimit:10}</style><linearGradient id="SVGID_1_" gradientUnits="userSpaceOnUse" x1="453.323" y1="375.962" x2="384.916" y2="99.624" gradientTransform="matrix(1 0 0 -1 0 664)"><stop offset="0"/><stop offset="1" stop-opacity="0"/></linearGradient><path d="M515.5 529.6s-78.6 61.8-81.1 61.2c-2.6-.6-178 0-178 0l138.5-61.9 45.5 4.4-62.8 38.1 79.3-44.2 58.6 2.4z" opacity=".36" fill="url(#SVGID_1_)"/><path d="M407.9 528.6h-94.7c-21.2 0-38.4-17.2-38.4-38.4v-87.7h171.5v87.7c0 21.2-17.2 38.4-38.4 38.4z" fill="none" stroke="#8c8c8c" stroke-width="3"/><path d="M266.4 426h189.5v-19.1c0-5-4.1-9.1-9.1-9.1h-171c-5 0-9 4-9.1 9l-.3 19.2z" fill="#bf4c00"/><path class="st3" d="M447.7 481.4l10.7 37.3 15.8 1.8-3.7-45.7z"/><path class="st4" d="M432.6 404.9s17.8 97.6 18.1 97.7c.3 0 23.8-1.6 23.8-1.6l-5.1-108.9s.5-36.8-24-37.8c-23.9-.9-117.8 1.3-117.8 1.3l105 49.3z"/><path class="st5" d="M310.7 297.7c2.9 33.1-2.1 60-2.1 60s11.7 7.6 35.2 8h36.5l40.4-43.5-11.1-51.7s-3-9.5-7.1-16.2c-2.2-3.6-5.7-6.2-9.8-7.2l-17.5-3.8-10.8 1.3-21.1-4.3-33.5 10.2.9 47.2z"/><path d="M452 508.5l1 18.6 63.2 2.5-39-21.4-5.9 2.6z"/><path class="st3" d="M394.1 472.2l3 50.2 16.4.8 5.8-48.5z"/><linearGradient id="SVGID_2_" gradientUnits="userSpaceOnUse" x1="254.1" y1="231.668" x2="466.828" y2="238.66" gradientTransform="matrix(1 0 0 -1 0 664)"><stop offset="0"/><stop offset="1" stop-color="#231f20" stop-opacity="0"/></linearGradient><path d="M449.3 495.6s-4.1-12.6-.3-27.5c1-4 3-7.6 4.8-11.3 2.7-5.5 5-13.4 3.9-19.8-1.2-7.2-15.8-8.7-6.8-31 6.9-17.1 13.6-35.2 4.6-44.5-9-9.4-20.2-2.6-43.1-3.2-53.3-1.4-33.8 40.4-33.8 40.4l53.9 6.2 16.8 90.7z" fill="url(#SVGID_2_)"/><linearGradient id="SVGID_3_" gradientUnits="userSpaceOnUse" x1="295.381" y1="215.36" x2="427.592" y2="393.031" gradientTransform="matrix(1 0 0 -1 0 664)"><stop offset="0"/><stop offset="1" stop-color="#231f20" stop-opacity="0"/></linearGradient><path d="M393.9 278.7l1.7 64.7 10.2-5.6s-4-54.1-11.9-59.1z" fill="url(#SVGID_3_)"/><linearGradient id="SVGID_4_" gradientUnits="userSpaceOnUse" x1="5222.596" y1="428.62" x2="5639.341" y2="-118.993" gradientTransform="rotate(180 2856.68 332)"><stop offset="0" stop-color="#fff"/><stop offset="1"/></linearGradient><path fill="url(#SVGID_4_)" d="M358.4 366h98l18.5-66.6H377z"/><path class="st4" d="M308.6 357.7s-3.5 44.7 27.8 44.7c14.3 0 56.8.9 56.8.9L392 503.5l25.9 2.3 15.3-116.6s4.2-23.5-16.5-28.3c-13.3-3-108.1-3.2-108.1-3.2z"/><linearGradient id="SVGID_5_" gradientUnits="userSpaceOnUse" x1="5384.637" y1="771.128" x2="5396.843" y2="245.049" gradientTransform="rotate(180 2856.68 332)"><stop offset="0"/><stop offset="1" stop-color="#231f20" stop-opacity="0"/></linearGradient><path d="M307.7 275.3l21.2-4s11.5 32.9-11.6 72.5c0 0 9.3 6.2 6.6 13.9-4.9 13.9-12.4 35 7.1 44.6 0 0-13 .7-19.6-19.1-4.5-13.6-2.6-25.5-2.6-25.5s.7-5.6.7-6-5.5-.7-5.5-1c1.3-9.7 2-28.4 3.6-41.4 2.7-21.1.1-34 .1-34z" fill="url(#SVGID_5_)"/><linearGradient id="SVGID_6_" gradientUnits="userSpaceOnUse" x1="5323.829" y1="305.659" x2="5339.775" y2="253.833" gradientTransform="rotate(180 2856.68 332)"><stop offset="0"/><stop offset="1" stop-color="#231f20" stop-opacity="0"/></linearGradient><path d="M358.3 403.4s29.1-1 35-7.1l-.3 7.2-34.7-.1z" fill="url(#SVGID_6_)"/><path d="M393.5 511.1v17.7l47.1 4.6-24.7-22.3-7.7 3.5z"/><linearGradient id="SVGID_7_" gradientUnits="userSpaceOnUse" x1="5417.919" y1="-743.038" x2="5495.088" y2="-792.106" gradientTransform="matrix(-.9686 -.2487 .1842 -.7176 5828.97 1143.065)"><stop offset="0" stop-color="#fff"/><stop offset="1"/></linearGradient><path d="M414.2 332.8c-.8 3 .4 6 2.6 6.5 2.2.6 4.6-1.4 5.4-4.5.8-3-.4-6-2.6-6.5s-4.6 1.5-5.4 4.5z" fill="url(#SVGID_7_)"/><path class="st5" d="M316.5 326l49.4 13.2-5.2 18.5-62.7-7.4c-7.8-1-13.2-8.3-11.8-16.1l11.9-67.1c1.1-6.2 4.7-11.8 10-15.2 1.7-1.1 3.6-1.9 5.6-2.3 21.7-4.3 19.3 18.6 19.3 18.6L316.5 326z"/><path class="st12" d="M377.3 224.3c-.6 1.7-2.4 12.8-2 19 0 .1 7.3 15.4-7.1 14.9-9.3-.3-29.1-10.4-27.1-17.1 0 0 3.7-1.3 3.9-1.8 2.3-5.5 2.4-11.3 2.2-18.8-.3-10.5-2.9-18-3-17.4l33.1 21.2z"/><linearGradient id="SVGID_8_" gradientUnits="userSpaceOnUse" x1="-90.951" y1="383.719" x2="-61.956" y2="347.149" gradientTransform="scale(1 -1) rotate(-14.188 -2229.795 -1705.05)"><stop offset="0"/><stop offset="1" stop-color="#231f20" stop-opacity="0"/></linearGradient><path d="M355.4 221c-.1.7-.3 15.2 19.7 19.2l1.1-11.6-20.8-7.6z" fill="url(#SVGID_8_)"/><path class="st12" d="M377.2 173.8c2.3 1 5.6 1.2 7.4 3 4.7 5 5.4 10.3 5.4 16.9 0 11.3.8 26.6-6.6 35.9-5.1 6.4-13.6 5.6-19.4 3.9-7.6-2.2-14.4-7.8-16.9-14.2-.8-2.1-.4-20.7.7-28.2 1.4-9.3 1.4-11.6 9.6-16.2 5.9-3.2 13.5-3.7 19.8-1.1z"/><path class="st14" d="M364.8 187.2c3.5-1.2 22 8.1 27.6 1 1-1.3 1.7-2.6 2.2-5.3.7-3.8-.8-8-3.1-11.1-.4-.5-1-1.1-1.4-1.2-3.4-.9-.4 2.2-19.2 1.7-10.1-.2-15.8-2.6-20.5 4.5-.3.4-1.9-.2-2.3 0-6.7 3.7-7.7 11.7-6.9 16.6 1.9 11.4 6 26.6 6 26.6l1.6-6 4.1-4.8s4.3-11.9 2.1-7.1c-.1.2 5.6-1.9 6.5-4 1.8-4.4 0-9.8 3.3-10.9z"/><path class="st12" d="M353.8 209.3s-1.3-4.1-3.8-4.2c-3.3-.1-2.8 4.5-2.5 6.3.4 2.2 1.9 4.6 1.9 4.6l4.4-6.7z"/><path class="st14" d="M388.1 190.4c1.5-.6 2.8-1.4 4-2.4s2.2-2.2 2.8-3.5c.2-.3.3-.7.4-1l.2-.5c0-.2.1-.4.1-.6.1-.4.1-.7.2-1.1v-1.1c0-.4 0-.8-.1-1.2l-.1-1.2c-.1-.8-.3-1.5-.5-2.3.3.7.6 1.5.9 2.2.2.8.4 1.6.5 2.4.2 1.6-.1 3.3-.7 4.9-.7 1.5-1.8 2.8-3.2 3.7-1.3.9-2.9 1.5-4.5 1.7z"/><path class="st15" d="M482.8 218.9c.5-.6.9-1.3 1.3-2.1"/><path d="M486.3 212.4c1.8-4.4 3.4-10 4.5-16.4" fill="none" stroke="gray" stroke-miterlimit="10" stroke-dasharray="4.8691,4.8691,4.8691,4.8691"/><path d="M491.2 193.6c2.9-20.1.9-47.1-12-70-8.1-14.4-21.8-24.3-38.2-26.8-14.6-2.2-39.8 0-40.3 19.6-.1 3.3 1 6.8 3.5 9.1 5 4.7 16.6 4.7 21.7.1 3.7-3.3 4.2-9 2.7-13.7-4.7-14.2-20.3-22.7-34.1-25-14.7-2.5-30.1-.1-44 4.6-12.4 4.2-24.5 10.7-34.2 19.6" fill="none" stroke="gray" stroke-miterlimit="10" stroke-dasharray="4.8691,4.8691,4.8691,4.8691,4.8691,4.8691"/><path class="st15" d="M314.4 112.9c-.6.6-1.2 1.2-1.7 1.8"/><linearGradient id="SVGID_9_" gradientUnits="userSpaceOnUse" x1="460.356" y1="443.541" x2="445.454" y2="197.672" gradientTransform="matrix(1 0 0 -1 0 664)"><stop offset="0" stop-color="#fff"/><stop offset="1"/></linearGradient><path d="M465.5 236.2c-1.2-1.6-11.1-15.4-11.1-15.4l-2.6 40.2c.4-.4 13.7-24.8 13.7-24.8z" fill="url(#SVGID_9_)"/><linearGradient id="SVGID_10_" gradientUnits="userSpaceOnUse" x1="472.39" y1="442.812" x2="457.489" y2="196.943" gradientTransform="matrix(1 0 0 -1 0 664)"><stop offset="0" stop-color="#fff"/><stop offset="1"/></linearGradient><path d="M468.6 236.9L452 260.5c-.1.1 0 .2.1.1l37.4-24-20.9.3z" fill="url(#SVGID_10_)"/><linearGradient id="SVGID_11_" gradientUnits="userSpaceOnUse" x1="454.291" y1="420.452" x2="466.105" y2="415.106" gradientTransform="matrix(1 0 0 -1 0 664)"><stop offset="0" stop-color="#fff"/><stop offset="1"/></linearGradient><path fill="url(#SVGID_11_)" d="M468.6 236.9l4.1-3.6-7.1 2.7-13.8 25z"/><linearGradient id="SVGID_12_" gradientUnits="userSpaceOnUse" x1="470.482" y1="429.852" x2="471.318" y2="423.103" gradientTransform="matrix(1 0 0 -1 0 664)"><stop offset="0" stop-color="#fff"/><stop offset=".074" stop-color="#fbfbfb"/><stop offset=".153" stop-color="#eee"/><stop offset=".235" stop-color="#d8d8d8"/><stop offset=".32" stop-color="#bababa"/><stop offset=".405" stop-color="#939393"/><stop offset=".492" stop-color="#636363"/><stop offset=".578" stop-color="#2c2c2c"/><stop offset=".639"/></linearGradient><path d="M472.6 233.3l-4 3.6h2.2c0-.1 1.8-3.6 1.8-3.6z" fill="url(#SVGID_12_)"/></svg>