<svg width="492" height="352" viewBox="0 0 492 352" fill="none" xmlns="http://www.w3.org/2000/svg">
<path opacity="0.0772562" fill-rule="evenodd" clip-rule="evenodd" d="M130.101 -158.797C110.176 -147.125 101.234 -121.866 108.786 -99.0607C131.979 -29.0687 126.712 51.0248 87.7257 119.569C48.7875 188.082 -15.7491 230.208 -84.8042 240.903C-107.314 244.384 -124.196 264.488 -124.619 288.703C-126.323 386.355 -130.333 616.815 -132.125 719.473C-132.618 747.724 -110.741 770.939 -84.2398 769.573C22.4521 764.152 123.374 734.389 213.764 685.552L257.217 660.092C269.057 652.615 280.674 644.783 292.072 636.606C305.456 627.023 311.602 609.459 307.192 592.977C280.437 492.963 291.2 381.815 345.851 285.694C400.747 189.107 488.88 127.207 585.103 106.272C600.542 102.934 612.59 89.6053 614.371 72.9438C616.486 53.2341 617.909 33.3046 618.617 13.1605L619.175 -17.2596C619.214 -134.612 595.008 -246.057 551.522 -346.184C540.392 -371.829 510.793 -381.593 487.493 -367.972L130.101 -158.797Z" fill="#292828"/>
</svg>
