<svg width="544" height="544" viewBox="-20 -20 544 544" fill="none" xmlns="http://www.w3.org/2000/svg">
<path opacity="0.03" fill-rule="evenodd" clip-rule="evenodd" d="M252.001 8.98297C117.786 8.98297 8.98346 117.785 8.98346 252C8.98346 386.215 117.786 495.017 252.001 495.017C386.215 495.017 495.018 386.215 495.018 252C495.018 117.785 386.215 8.98297 252.001 8.98297ZM0.0654297 252C0.0654297 112.86 112.861 0.0649414 252.001 0.0649414C391.141 0.0649414 503.936 112.86 503.936 252C503.936 391.14 391.141 503.935 252.001 503.935C112.861 503.935 0.0654297 391.14 0.0654297 252Z" fill="#253053"/>
<g filter="url(#filter0_i_15_3242)">
<path fill-rule="evenodd" clip-rule="evenodd" d="M252 8.92033C117.751 8.92033 8.92033 117.751 8.92033 252C8.92033 386.249 117.751 495.08 252 495.08C386.249 495.08 495.08 386.249 495.08 252C495.08 117.751 386.249 8.92033 252 8.92033ZM0 252C0 112.824 112.824 0 252 0C391.176 0 504 112.824 504 252C504 391.176 391.176 504 252 504C112.824 504 0 391.176 0 252Z" fill="#152146"/>
</g>
<g opacity="0.08">
<rect width="4.9635" height="19.854" rx="2.48175" transform="matrix(0.994522 0.104528 0.104528 -0.994522 276.818 49.3804)" fill="white"/>
<rect width="4.9635" height="19.854" rx="2.48175" transform="matrix(0.809017 0.587785 0.587785 -0.809017 374.103 89.376)" fill="white"/>
<rect width="4.9635" height="19.854" rx="2.48175" transform="matrix(0.406737 0.913545 0.913545 -0.406737 439.62 171.725)" fill="white"/>
<rect x="131.214" y="89.376" width="4.9635" height="19.854" rx="2.48175" transform="rotate(144 131.214 89.376)" fill="white"/>
<rect x="65.6963" y="171.725" width="4.9635" height="19.854" rx="2.48175" transform="rotate(114 65.6963 171.725)" fill="white"/>
<rect width="4.9635" height="19.854" rx="2.48175" transform="matrix(0.71934 0.694658 0.694658 -0.71934 393.717 107.023)" fill="white"/>
<rect width="4.9635" height="19.854" rx="2.48175" transform="matrix(0.970296 0.241922 0.241922 -0.970296 302.629 54.8552)" fill="white"/>
<rect width="4.9635" height="19.854" rx="2.48175" transform="matrix(0.587785 0.809017 0.809017 -0.587785 411.304 126.193)" fill="white"/>
<rect width="4.9635" height="19.854" rx="2.48175" transform="matrix(0.275637 0.961262 0.961262 -0.275637 447.784 196.814)" fill="white"/>
<rect x="227.88" y="49.3804" width="4.9635" height="19.854" rx="2.48175" transform="rotate(174 227.88 49.3804)" fill="white"/>
<rect width="4.9635" height="19.854" rx="2.48175" transform="matrix(0.104528 0.994522 0.994522 -0.104528 453.431 222.21)" fill="white"/>
<rect x="111.6" y="107.023" width="4.9635" height="19.854" rx="2.48175" transform="rotate(136 111.6 107.023)" fill="white"/>
<rect width="4.9635" height="19.854" rx="2.48175" transform="matrix(0.913545 0.406737 0.406737 -0.913545 327.445 62.6631)" fill="white"/>
<rect x="94.0098" y="126.193" width="4.9635" height="19.854" rx="2.48175" transform="rotate(126 94.0098 126.193)" fill="white"/>
<rect x="57.5312" y="196.814" width="4.9635" height="19.854" rx="2.48175" transform="rotate(106 57.5312 196.814)" fill="white"/>
<rect x="202.069" y="54.8552" width="4.9635" height="19.854" rx="2.48175" transform="rotate(166 202.069 54.8552)" fill="white"/>
<rect x="51.8857" y="222.21" width="4.9635" height="19.854" rx="2.48175" transform="rotate(96 51.8857 222.21)" fill="white"/>
<rect x="177.254" y="62.6631" width="4.9635" height="19.854" rx="2.48175" transform="rotate(156 177.254 62.6631)" fill="white"/>
<rect x="374.103" y="413.596" width="4.9635" height="19.854" rx="2.48175" transform="rotate(-36 374.103 413.596)" fill="white"/>
<rect x="439.62" y="331.247" width="4.9635" height="19.854" rx="2.48175" transform="rotate(-66 439.62 331.247)" fill="white"/>
<rect width="4.9635" height="19.854" rx="2.48175" transform="matrix(-0.809017 -0.587785 -0.587785 0.809017 131.214 413.596)" fill="white"/>
<rect width="4.9635" height="19.854" rx="2.48175" transform="matrix(-0.406737 -0.913545 -0.913545 0.406737 65.6963 331.247)" fill="white"/>
<rect x="393.717" y="395.949" width="4.9635" height="19.854" rx="2.48175" transform="rotate(-44 393.717 395.949)" fill="white"/>
<rect x="411.304" y="376.778" width="4.9635" height="19.854" rx="2.48175" transform="rotate(-54 411.304 376.778)" fill="white"/>
<rect x="447.784" y="306.157" width="4.9635" height="19.854" rx="2.48175" transform="rotate(-74 447.784 306.157)" fill="white"/>
<rect x="453.431" y="280.761" width="4.9635" height="19.854" rx="2.48175" transform="rotate(-84 453.431 280.761)" fill="white"/>
<rect width="4.9635" height="19.854" rx="2.48175" transform="matrix(-0.71934 -0.694658 -0.694658 0.71934 111.6 395.949)" fill="white"/>
<rect width="4.9635" height="19.854" rx="2.48175" transform="matrix(-0.587785 -0.809017 -0.809017 0.587785 94.0098 376.778)" fill="white"/>
<rect width="4.9635" height="19.854" rx="2.48175" transform="matrix(-0.275637 -0.961262 -0.961262 0.275637 57.5312 306.157)" fill="white"/>
<rect width="4.9635" height="19.854" rx="2.48175" transform="matrix(-0.104528 -0.994522 -0.994522 0.104528 51.8857 280.761)" fill="white"/>
<rect x="276.818" y="452.937" width="4.9635" height="19.854" rx="2.48175" transform="rotate(-6 276.818 452.937)" fill="white"/>
<rect width="4.9635" height="19.854" rx="2.48175" transform="matrix(-0.994522 -0.104528 -0.104528 0.994522 227.88 452.937)" fill="white"/>
<rect x="302.629" y="447.462" width="4.9635" height="19.854" rx="2.48175" transform="rotate(-14 302.629 447.462)" fill="white"/>
<rect width="4.9635" height="19.854" rx="2.48175" transform="matrix(-0.970296 -0.241922 -0.241922 0.970296 202.069 447.462)" fill="white"/>
<rect x="327.445" y="439.654" width="4.9635" height="19.854" rx="2.48175" transform="rotate(-24 327.445 439.654)" fill="white"/>
<rect width="4.9635" height="19.854" rx="2.48175" transform="matrix(-0.913545 -0.406737 -0.406737 0.913545 177.254 439.654)" fill="white"/>
</g>
<g opacity="0.06">
<rect x="247.036" y="28.6423" width="10.9197" height="29.781" rx="5.45985" fill="white"/>
<rect width="10.9197" height="29.781" rx="5.45985" transform="matrix(1 0 0 -1 247.036 473.895)" fill="white"/>
<rect x="359.213" y="55.4453" width="10.9197" height="29.781" rx="5.45985" transform="rotate(30 359.213 55.4453)" fill="white"/>
<rect width="10.9197" height="29.781" rx="5.45985" transform="matrix(0.866025 -0.5 -0.5 -0.866025 359.213 447.092)" fill="white"/>
<rect x="442.58" y="134.861" width="10.9197" height="29.781" rx="5.45985" transform="rotate(60 442.58 134.861)" fill="white"/>
<rect width="10.9197" height="29.781" rx="5.45985" transform="matrix(0.5 -0.866025 -0.866025 -0.5 442.58 367.676)" fill="white"/>
<rect x="475.356" y="246.044" width="10.9197" height="29.781" rx="5.45985" transform="rotate(90 475.356 246.044)" fill="white"/>
<rect width="10.9197" height="29.781" rx="5.45985" transform="matrix(-0.866025 0.5 0.5 0.866025 145.781 55.4453)" fill="white"/>
<rect x="145.781" y="447.092" width="10.9197" height="29.781" rx="5.45985" transform="rotate(-150 145.781 447.092)" fill="white"/>
<rect width="10.9197" height="29.781" rx="5.45985" transform="matrix(-0.5 0.866025 0.866025 0.5 62.415 134.861)" fill="white"/>
<rect x="62.415" y="367.676" width="10.9197" height="29.781" rx="5.45985" transform="rotate(-120 62.415 367.676)" fill="white"/>
<rect width="10.9197" height="29.781" rx="5.45985" transform="matrix(0 1 1 0 29.6348 246.044)" fill="white"/>
</g>
<g filter="url(#filter1_d_15_3242)">
<rect x="247.036" y="28.6423" width="10.9197" height="29.781" rx="5.45985" fill="#5FBBFF"/>
<rect width="10.9197" height="29.781" rx="5.45985" transform="matrix(1 0 0 -1 247.036 473.895)" fill="#5FBBFF"/>
<rect x="359.213" y="55.4453" width="10.9197" height="29.781" rx="5.45985" transform="rotate(30 359.213 55.4453)" fill="#5FBBFF"/>
<rect width="10.9197" height="29.781" rx="5.45985" transform="matrix(0.866025 -0.5 -0.5 -0.866025 359.213 447.092)" fill="#5FBBFF"/>
<rect x="442.58" y="134.861" width="10.9197" height="29.781" rx="5.45985" transform="rotate(60 442.58 134.861)" fill="#5FBBFF"/>
<rect width="10.9197" height="29.781" rx="5.45985" transform="matrix(0.5 -0.866025 -0.866025 -0.5 442.58 367.676)" fill="#5FBBFF"/>
<rect x="475.356" y="246.044" width="10.9197" height="29.781" rx="5.45985" transform="rotate(90 475.356 246.044)" fill="#5FBBFF"/>
<rect width="10.9197" height="29.781" rx="5.45985" transform="matrix(-0.866025 0.5 0.5 0.866025 145.781 55.4453)" fill="#5FBBFF"/>
<rect x="145.781" y="447.092" width="10.9197" height="29.781" rx="5.45985" transform="rotate(-150 145.781 447.092)" fill="#5FBBFF"/>
<rect width="10.9197" height="29.781" rx="5.45985" transform="matrix(-0.5 0.866025 0.866025 0.5 62.415 134.861)" fill="#5FBBFF"/>
<rect x="62.415" y="367.676" width="10.9197" height="29.781" rx="5.45985" transform="rotate(-120 62.415 367.676)" fill="#5FBBFF"/>
<rect width="10.9197" height="29.781" rx="5.45985" transform="matrix(0 1 1 0 29.6348 246.044)" fill="#5FBBFF"/>
</g>
<defs>
<filter id="filter0_i_15_3242" x="0" y="0" width="504" height="505" filterUnits="userSpaceOnUse" color-interpolation-filters="sRGB">
<feFlood flood-opacity="0" result="BackgroundImageFix"/>
<feBlend mode="normal" in="SourceGraphic" in2="BackgroundImageFix" result="shape"/>
<feColorMatrix in="SourceAlpha" type="matrix" values="0 0 0 0 0 0 0 0 0 0 0 0 0 0 0 0 0 0 127 0" result="hardAlpha"/>
<feOffset dy="1"/>
<feGaussianBlur stdDeviation="2"/>
<feComposite in2="hardAlpha" operator="arithmetic" k2="-1" k3="1"/>
<feColorMatrix type="matrix" values="0 0 0 0 0 0 0 0 0 0 0 0 0 0 0 0 0 0 0.4 0"/>
<feBlend mode="normal" in2="shape" result="effect1_innerShadow_15_3242"/>
</filter>
<filter id="filter1_d_15_3242" x="25.6348" y="26.6423" width="453.722" height="453.253" filterUnits="userSpaceOnUse" color-interpolation-filters="sRGB">
<feFlood flood-opacity="0" result="BackgroundImageFix"/>
<feColorMatrix in="SourceAlpha" type="matrix" values="0 0 0 0 0 0 0 0 0 0 0 0 0 0 0 0 0 0 127 0" result="hardAlpha"/>
<feOffset dy="2"/>
<feGaussianBlur stdDeviation="2"/>
<feComposite in2="hardAlpha" operator="out"/>
<feColorMatrix type="matrix" values="0 0 0 0 0.0883333 0 0 0 0 0.115036 0 0 0 0 0.2 0 0 0 1 0"/>
<feBlend mode="normal" in2="BackgroundImageFix" result="effect1_dropShadow_15_3242"/>
<feBlend mode="normal" in="SourceGraphic" in2="effect1_dropShadow_15_3242" result="shape"/>
</filter>
</defs>
</svg>
