<svg xmlns="http://www.w3.org/2000/svg" width="1247" height="594">
  <path fill="#D3DEFF" fill-rule="nonzero" d="M44.398 59.854C64.82 18.966 109.258-4.773 154.725 1.215l2.768.37 5.656.766 7.942 1.096 9.765 1.375 9.352 1.722 151.698 34.258C576.496 93.7 792.54 178.422 982.632 294.909c74.32 45.575 145.67 95.634 213.616 149.897 46.207 36.904 60.94 97.162 41.626 148.658l-1.032-.108c19.309-51.158 4.713-111.085-41.218-147.768-67.914-54.238-139.23-104.273-213.515-149.826C792.114 179.334 576.172 94.652 341.686 41.777L190.008 7.524l-9.313-1.716-5.541-.782-9.229-1.285-4.818-.66-6.513-.874C109.096-3.786 64.635 20.272 44.687 61.534l-3.82 7.811A1050.394 1050.394 0 0 1 .939 142.661l-.03.005a694.26 694.26 0 0 1-.604-.947l.035-.005a1049.583 1049.583 0 0 0 43.446-80.616l.612-1.244Z"/>
</svg>
