<?xml version="1.0" encoding="UTF-8"?>
<svg width="591px" height="788px" viewBox="0 0 591 788" version="1.1" xmlns="http://www.w3.org/2000/svg" xmlns:xlink="http://www.w3.org/1999/xlink">
    <title>Group 26</title>
    <g id="Page-1" stroke="none" stroke-width="1" fill="none" fill-rule="evenodd" opacity="0.5">
        <g id="About-v1" transform="translate(-817.000000, 0.000000)" stroke="#294DFF" stroke-width="0.5">
            <g id="Group-15" transform="translate(546.754870, -42.705383)">
                <g id="Group-26" transform="translate(-1313.751130, -1564.294617)">
                    <path d="M1686.85659,1804.47857 C1576.52525,1604.03642 1565.22264,1371.95528 1636.48673,1170.48821 C1659.69489,1104.91024 1634.86565,1031.23791 1577.271,996.491916 L544.058127,372.932214 C476.707908,332.303084 389.714315,359.05964 355.885824,432.800563 C223.734686,720.476917 147.401088,1041.86629 141.490622,1381.61524 L141.556735,1469.49505 C142.625114,1527.83007 145.777362,1585.64053 150.952656,1642.84573 C155.316087,1691.20202 189.816282,1730.35835 234.741111,1740.8455 C514.722648,1806.22979 768.983743,1989.93044 924.472625,2272.26436 C1079.13907,2553.29899 1104.93356,2875.55186 1021.76392,3163.71243 C1008.00456,3211.2496 1024.98228,3262.39009 1063.65285,3290.80506 C1096.52932,3315.01548 1130.06163,3338.27363 1164.22597,3360.55126 L1289.85048,3436.4106 C1551.4104,3582.40754 1844.6647,3673.60014 2156.06559,3694.68339 C2233.36707,3699.9774 2298.46418,3633.91522 2298.46418,3552.07994 C2298.49062,3254.82433 2298.49062,2587.50428 2298.49062,2304.71036 C2298.49062,2234.60908 2250.2443,2175.58002 2184.63152,2164.39077 C1983.42974,2129.91916 1797.17735,2004.71494 1686.85659,1804.47857" id="Ellipse-1" transform="translate(1219.990622, 2024.469715) rotate(-5.000000) translate(-1219.990622, -2024.469715) "></path>
                    <path d="M2079.14123,1645.07294 C1973.53295,1453.2113 1962.71419,1231.06508 2030.9276,1038.2224 C2053.14227,975.451689 2029.37592,904.933123 1974.24678,871.674531 L985.263625,274.808139 C920.79653,235.918259 837.526954,261.529422 805.146591,332.113647 C678.652573,607.475167 605.586659,915.106521 599.929208,1240.31151 L599.99249,1324.42937 C601.015135,1380.26719 604.032442,1435.60291 608.986192,1490.35927 C613.162833,1536.64553 646.186146,1574.12565 689.187834,1584.16387 C957.183937,1646.74919 1200.56064,1822.58599 1349.39336,2092.83378 C1497.43885,2361.83789 1522.12913,2670.29578 1442.51981,2946.12078 C1429.34947,2991.62299 1445.6004,3040.57426 1482.61557,3067.77284 C1514.08466,3090.94687 1546.18152,3113.20938 1578.88336,3134.53335 L1699.13013,3207.14531 C1949.49322,3346.89242 2230.1939,3434.18125 2528.26436,3454.36197 C2602.25673,3459.42936 2664.56716,3396.19516 2664.56716,3317.86308 C2664.59247,3033.33237 2664.59247,2394.57893 2664.59247,2123.89084 C2664.59247,2056.79044 2618.41147,2000.2883 2555.60744,1989.57803 C2363.0187,1956.58208 2184.73939,1836.7376 2079.14123,1645.07294" id="Ellipse-1-Copy" transform="translate(1632.260838, 1855.646713) scale(-1, 1) rotate(-20.000000) translate(-1632.260838, -1855.646713) "></path>
                </g>
            </g>
        </g>
    </g>
</svg>