<svg xmlns="http://www.w3.org/2000/svg" width="1313" height="636">
  <path fill="rgba(41, 77, 255, 0.15)" fill-rule="nonzero" d="M980.786-1077.144c58.336-47.847 144.424-37.844 188.05 22.73 17.974 24.996 35.142 49.95 51.534 74.945 152.706 232.894 255.788 504.636 307.11 798.99l1.539 8.927 30.546 179.223.079.835c3.802 45.913-22.374 89.182-64.685 107.067-266.095 112.657-476.043 330.806-577.588 609.8-101.821 279.75-80.834 582.67 51.474 840.368 21.145 41.148 13.53 91.6-18.94 124.639l-4.62 4.677-4.84 4.873-5.177 5.186-3.969 3.962-7.004 6.433-118.653 100.534c-183.426 155.516-381.106 277.07-588.537 358.78-81.126 31.928-164.044 58.784-248.271 80.392-74.181 19.028-147.876-27.67-162.013-102.588l-.41-2.278-196.115-1150.275c-10.98-64.588 26.767-127.527 89.152-150.22 191.183-69.598 343.832-220.113 415.347-416.598C186.243 236.954 166.144 23.735 64.62-152.37 31.8-209.309 42.846-280.952 91.532-323.475l1.487-1.28 886.008-750.921 1.76-1.468Zm-31.593 2766.822c32.167-32.73 39.71-82.716 18.763-123.48-132.434-257.944-153.442-561.153-51.525-841.168 101.641-279.257 311.79-497.613 578.139-610.378 41.494-17.54 67.323-59.726 64.182-104.694l-.104-1.364-.073-.792-30.542-179.186c-50.76-297.656-154.329-572.41-308.499-807.537-16.384-24.982-33.544-49.925-51.51-74.908-43.285-60.102-128.709-70.027-186.604-22.541l-1.746 1.456L93.665-323.992c-49.572 42.038-61.092 114.022-28.18 171.123 101.671 176.358 121.8 389.885 50.25 586.47C44.117 630.364-108.753 781.097-300.21 850.794c-61.317 22.305-98.655 83.762-88.82 147.19l.312 1.923 196.115 1150.274c12.959 75.667 86.822 123.142 161.188 104.066 84.188-21.597 167.066-48.44 248.153-80.353 205.252-80.852 400.959-200.739 582.753-353.96l5.504-4.652 118.639-100.522 6.974-6.405 6.224-6.22 6.387-6.416 5.323-5.381.65-.66Z"/>
</svg>
