<svg xmlns="http://www.w3.org/2000/svg" width="1408" height="832" fill="none">
  <path stroke="#08BA98" stroke-width=".5" d="m-1441 1434.96 1134.803 261.83c64.345 14.83 128.61-20.28 154.089-81.11 76.75-183.27 231.505-332.61 437.012-395.44 205.704-62.89 417.709-25.5 583.899 83.71 55.101 36.22 127.974 29.47 173.097-18.79l798.73-855.051c52.9-56.704 45.66-145.497-14.56-194.099a2129.756 2129.756 0 0 0-214.23-152.061c-197.06-122.252-415.6-206.455-641.983-258.645l-151.95-35.081-9.347-1.766a2989.411 2989.411 0 0 0-26.143-3.721c-45.881-6.24-90.457 18.151-110.342 59.87C550.229 99.996 325.459 305.807 32.699 395.313c-291.96 89.261-592.564 44.8-836.098-97.915-39.615-23.246-89.729-18.312-123.931 12.458l-.615.566-124.425 133.189c-199.83 213.936-360.29 463.133-457.53 738.589-10.16 28.8-19.67 57.82-28.59 87.03-22.14 72.68 23.27 148.65 97.49 165.73" opacity=".3"/>
</svg>
