<svg xmlns="http://www.w3.org/2000/svg" width="512" height="172">
  <path fill="rgba(255, 255, 255, 0.4)" fill-rule="nonzero" d="m-2371.388 1610.636 1132.926 255.682c63.406 14.291 127.829-19.83 153.624-80.48 79.658-187.331 238.075-331.911 438.135-393.075 200.243-61.22 412.623-29.847 583.507 81.113 54.716 35.547 126.268 28.381 171.006-17.646l1.347-1.407 800.625-848.876c52.632-55.887 46.094-143.448-13.895-191.36-67.914-54.237-139.229-104.272-213.515-149.825C494.277 149.499 280.752 65.35 48.98 12.373l-7.03-1.596-151.678-34.253-9.313-1.716-8.712-1.227-6.058-.84-6.7-.914-4.63-.62c-45.498-5.993-89.96 18.065-109.908 59.327-126.303 261.001-355.814 460.254-640.778 547.377-284.194 86.887-585.052 50.465-835.402-94.388-38.98-22.582-88.216-17.822-122.24 11.75l-1.025.903-.59.535-124.723 132.228c-207.17 219.673-364.269 467.738-459.268 732.366-10.091 28.12-19.685 56.835-28.826 86.219-21.949 70.739 21.534 144.935 94.3 162.594l2.214.518Zm-.22.976-2.23-.522c-73.32-17.794-117.14-92.566-95.019-163.863 9.145-29.397 18.743-58.126 28.84-86.26 94.097-262.115 249.083-507.979 453.279-726.112l6.203-6.602 124.75-132.254.62-.566c34.38-30.667 84.689-35.802 124.436-12.775 250.112 144.715 550.682 181.101 834.608 94.297 284.696-87.04 513.988-286.104 640.17-546.857 20.137-41.65 65.013-65.932 110.94-59.883l5.571.748 7.75 1.061 8.34 1.166 4.47.632 9.352 1.722L42.17 9.802C276.759 62.7 492.802 147.422 682.895 263.909c74.321 45.575 145.67 95.634 213.616 149.897 59.84 47.793 66.895 134.752 15.572 191.128l-1.573 1.699-800.626 848.877c-44.973 47.64-117.956 55.371-173.624 19.205-170.64-110.8-382.713-142.13-582.67-80.996-199.775 61.077-357.964 205.448-437.508 392.511-25.722 60.479-89.587 94.772-152.847 81.481l-1.917-.417-1132.926-255.682Z"/>
</svg>
