<svg xmlns="http://www.w3.org/2000/svg" width="705" height="1493">
  <path fill="rgba(255,255,255,0.4)" fill-rule="nonzero" d="m596.652.796.112.372c31.793 99.349 56.977 202.386 75.452 308.353l1.54 8.927 30.546 179.223.078.835c3.802 45.913-22.373 89.182-64.684 107.067C373.6 718.23 163.653 936.38 62.107 1215.373c-33.057 90.824-53.17 184.09-60.73 277.458h.009l-.996-.096c7.56-93.452 27.691-186.8 60.778-277.705 101.64-279.257 311.789-497.613 578.138-610.378 41.494-17.54 67.324-59.726 64.182-104.694l-.104-1.364-.073-.792-30.541-179.186C654.107 209.18 628.306 102.84 595.476.425l1.176.371Z"/>
</svg>
