<svg xmlns="http://www.w3.org/2000/svg" width="782" height="1222" fill="none">
  <path fill="#fff" fill-opacity=".1" fill-rule="evenodd" d="M261.469 235.005c-20.884 12.727-29.887 39.635-21.468 63.641 25.855 73.676 21.757 158.574-18.261 231.867-39.968 73.258-107.531 119.053-180.461 131.652C17.506 666.267 0 687.864 0 713.51c0 103.421.014 347.5.014 456.22 0 29.92 23.596 54.1 51.635 52.16 112.883-7.71 219.206-41.09 314.024-94.46l45.544-27.76a763.577 763.577 0 0 0 36.477-25.51c13.996-10.4 20.18-29.11 15.205-46.48-30.181-105.393-20.838-223.271 35.258-326.05 56.348-103.278 148.535-170.444 250.045-194.387 16.288-3.82 28.799-18.155 30.377-35.828a883.58 883.58 0 0 0 3.392-63.375l.029-32.218c-2.128-124.25-29.822-241.796-77.723-347.003-12.261-26.946-43.785-36.737-68.208-21.885l-374.6 228.071Z" clip-rule="evenodd"/>
</svg>
