<svg xmlns="http://www.w3.org/2000/svg" width="628" height="852">
  <path fill="#FFF" fill-opacity=".3" fill-rule="evenodd" d="M232.342 85.875a692.909 692.909 0 0 1 37.38 75.463l74.662-79.155.617-.563c34.3-30.596 84.491-35.719 124.144-12.746C555.051 118.58 646.908 155.508 742 179.058v.515c-95.18-23.56-187.121-60.516-273.104-110.266-39.072-22.636-88.425-17.865-122.53 11.778l-1.029.906-.602.549-74.8 79.3c67.102 159.467 73.081 340.895 11.567 509.903-23.886 65.627-56.77 126.148-97.072 180.26l-.624.001c40.375-54.15 73.313-114.73 97.226-180.432 61.444-168.816 55.501-350.03-11.472-509.334l-49.549 52.53C138.723 300.96 65.143 391.525-.003 485.746v-.878c63.396-91.627 134.768-179.793 213.447-263.843l6.203-6.6 49.7-52.69a692.407 692.407 0 0 0-37.438-75.612C216.457 59.176 210.84 28.908 214.39 0h.504c-3.552 28.823 2.041 59.006 17.448 85.876Z"/>
</svg>
